<svg version="1.1" id="Layer_1" xmlns="http://www.w3.org/2000/svg" xmlns:xlink="http://www.w3.org/1999/xlink" x="0px" y="0px"
	 viewBox="0 0 512 512" style="enable-background:new 0 0 512 512;" xml:space="preserve">
<g>
	<g>
		<path d="M478.607,33.391H272.696V16.696C272.696,7.475,265.22,0,256,0c-9.22,0-16.696,7.475-16.696,16.696v16.696H33.393
			c-18.412,0-33.391,14.979-33.391,33.391v267.129c0,18.412,14.979,33.391,33.391,33.391h127.873
			c-5.809,10.788-62.539,116.143-64.661,120.084c-4.372,8.118-1.335,18.244,6.785,22.615c8.108,4.369,18.24,1.341,22.615-6.785
			l37.225-69.132h76.074v61.217c0,9.22,7.475,16.696,16.696,16.696c9.22,0,16.696-7.475,16.696-16.696v-61.217h76.074l37.226,69.132
			c4.371,8.118,14.495,11.157,22.615,6.785c8.119-4.372,11.156-14.496,6.785-22.615c-2.125-3.946-58.843-109.279-64.661-120.084
			h127.873c18.412,0,33.391-14.979,33.391-33.391V66.782C511.998,48.37,497.019,33.391,478.607,33.391z M239.304,400.693H181.21
			l17.98-33.391h40.115V400.693z M272.696,400.693v-33.391h40.115l17.98,33.391H272.696z M478.607,333.911
			c-1.953,0-440.769,0-445.214,0V66.782h445.214l0.021,267.128C478.628,333.91,478.622,333.911,478.607,333.911z"/>
	</g>
</g>
<g>
	<g>
		<path d="M428.521,200.347c9.22,0,16.696-7.475,16.696-16.696v-66.782c0-9.22-7.475-16.696-16.696-16.696H83.479
			c-9.22,0-16.695,7.475-16.695,16.696v166.955c0,9.22,7.475,16.695,16.695,16.695h345.041c9.221,0,16.696-7.475,16.696-16.695
			v-33.391c0-9.22-7.475-16.696-16.696-16.696s-16.696,7.475-16.696,16.696v16.696h-72.347v-16.696
			c0-9.22-7.475-16.696-16.696-16.696c-9.22,0-16.695,7.475-16.695,16.696v16.696H100.175v-33.391h22.261
			c9.22,0,16.696-7.475,16.696-16.696s-7.475-16.695-16.696-16.695h-22.261v-66.782h105.738v66.782h-16.696
			c-9.22,0-16.696,7.475-16.696,16.695s7.475,16.696,16.696,16.696h33.391c9.22,0,16.695-7.475,16.695-16.696v-83.478h66.782v33.391
			h-16.696c-9.22,0-16.696,7.475-16.696,16.696s7.475,16.696,16.696,16.696h66.782c9.22,0,16.696-7.475,16.696-16.696
			s-7.475-16.696-16.696-16.696h-16.696v-33.391h72.347v50.087C411.825,192.871,419.3,200.347,428.521,200.347z"/>
	</g>
</g>
<g>
</g>
<g>
</g>
<g>
</g>
<g>
</g>
<g>
</g>
<g>
</g>
<g>
</g>
<g>
</g>
<g>
</g>
<g>
</g>
<g>
</g>
<g>
</g>
<g>
</g>
<g>
</g>
<g>
</g>
</svg>
